<svg height="100%" width="100%" viewBox="0 0 100 100"  fill="none" xmlns="http://www.w3.org/2000/svg">
<g style="mix-blend-mode:multiply">
<path d="M0.0838282 63H-0.916172V64H0.0838282V63ZM0.0838282 1.08V0.0799979H-0.916172V1.08H0.0838282ZM19.9738 48.15H18.9738V49.15H19.9738V48.15ZM19.9738 15.93V14.93H18.9738V15.93H19.9738ZM26.9038 2.08C37.5914 2.08 45.4214 4.62688 50.5815 9.54395C55.7325 14.4524 58.3938 21.8868 58.3938 32.04H60.3938C60.3938 21.5532 57.6402 13.5076 51.9612 8.09605C46.2912 2.69311 37.8763 0.0799979 26.9038 0.0799979V2.08ZM58.3938 32.04C58.3938 42.1932 55.7325 49.6276 50.5815 54.5361C45.4214 59.4531 37.5914 62 26.9038 62V64C37.8763 64 46.2912 61.3869 51.9612 55.9839C57.6402 50.5724 60.3938 42.5268 60.3938 32.04H58.3938ZM26.9038 62H0.0838282V64H26.9038V62ZM1.08383 63V1.08H-0.916172V63H1.08383ZM0.0838282 2.08H26.9038V0.0799979H0.0838282V2.08ZM19.9738 49.15H26.5438V47.15H19.9738V49.15ZM26.5438 49.15C30.8865 49.15 34.3222 47.983 36.6575 45.4796C38.9807 42.9894 40.0538 39.3475 40.0538 34.74H38.0538C38.0538 39.0725 37.042 42.1356 35.1951 44.1154C33.3604 46.082 30.5412 47.15 26.5438 47.15V49.15ZM40.0538 34.74V29.34H38.0538V34.74H40.0538ZM40.0538 29.34C40.0538 24.7325 38.9807 21.0906 36.6575 18.6004C34.3222 16.097 30.8865 14.93 26.5438 14.93V16.93C30.5412 16.93 33.3604 17.998 35.1951 19.9646C37.042 21.9444 38.0538 25.0075 38.0538 29.34H40.0538ZM26.5438 14.93H19.9738V16.93H26.5438V14.93ZM18.9738 15.93V48.15H20.9738V15.93H18.9738ZM107.755 63L106.797 63.2864L107.011 64H107.755V63ZM105.145 54.27L106.104 53.9836L105.89 53.27H105.145V54.27ZM83.4555 54.27V53.27H82.7107L82.4974 53.9836L83.4555 54.27ZM80.8455 63V64H81.5902L81.8036 63.2864L80.8455 63ZM60.5055 63L59.566 62.6573L59.0762 64H60.5055V63ZM83.0955 1.08V0.0799979H82.3958L82.156 0.737268L83.0955 1.08ZM106.225 1.08L107.165 0.737268L106.925 0.0799979H106.225V1.08ZM128.815 63V64H130.245L129.755 62.6573L128.815 63ZM87.5955 40.41L86.6371 40.1244L86.2541 41.41H87.5955V40.41ZM101.005 40.41V41.41H102.342L101.965 40.128L101.005 40.41ZM94.5255 18.36L95.4849 18.078L95.2739 17.36H94.5255V18.36ZM94.1655 18.36V17.36H93.42L93.2071 18.0744L94.1655 18.36ZM108.714 62.7136L106.104 53.9836L104.187 54.5564L106.797 63.2864L108.714 62.7136ZM105.145 53.27H83.4555V55.27H105.145V53.27ZM82.4974 53.9836L79.8874 62.7136L81.8036 63.2864L84.4136 54.5564L82.4974 53.9836ZM80.8455 62H60.5055V64H80.8455V62ZM61.4449 63.3427L84.0349 1.42273L82.156 0.737268L59.566 62.6573L61.4449 63.3427ZM83.0955 2.08H106.225V0.0799979H83.0955V2.08ZM105.286 1.42273L127.876 63.3427L129.755 62.6573L107.165 0.737268L105.286 1.42273ZM128.815 62H107.755V64H128.815V62ZM87.5955 41.41H101.005V39.41H87.5955V41.41ZM101.965 40.128L95.4849 18.078L93.566 18.642L100.046 40.692L101.965 40.128ZM94.5255 17.36H94.1655V19.36H94.5255V17.36ZM93.2071 18.0744L86.6371 40.1244L88.5538 40.6956L95.1238 18.6456L93.2071 18.0744ZM136.314 1.08V0.0799979H135.314V1.08H136.314ZM156.204 1.08H157.204V0.0799979H156.204V1.08ZM156.204 47.16H155.204V48.16H156.204V47.16ZM187.974 47.16H188.974V46.16H187.974V47.16ZM187.974 63V64H188.974V63H187.974ZM136.314 63H135.314V64H136.314V63ZM136.314 2.08H156.204V0.0799979H136.314V2.08ZM155.204 1.08V47.16H157.204V1.08H155.204ZM156.204 48.16H187.974V46.16H156.204V48.16ZM186.974 47.16V63H188.974V47.16H186.974ZM187.974 62H136.314V64H187.974V62ZM137.314 63V1.08H135.314V63H137.314ZM196.344 1.08V0.0799979H195.344V1.08H196.344ZM249.894 1.08H250.894V0.0799979H249.894V1.08ZM249.894 15.93V16.93H250.894V15.93H249.894ZM216.234 15.93V14.93H215.234V15.93H216.234ZM216.234 24.48H215.234V25.48H216.234V24.48ZM245.034 24.48H246.034V23.48H245.034V24.48ZM245.034 38.7V39.7H246.034V38.7H245.034ZM216.234 38.7V37.7H215.234V38.7H216.234ZM216.234 48.15H215.234V49.15H216.234V48.15ZM250.524 48.15H251.524V47.15H250.524V48.15ZM250.524 63V64H251.524V63H250.524ZM196.344 63H195.344V64H196.344V63ZM196.344 2.08H249.894V0.0799979H196.344V2.08ZM248.894 1.08V15.93H250.894V1.08H248.894ZM249.894 14.93H216.234V16.93H249.894V14.93ZM215.234 15.93V24.48H217.234V15.93H215.234ZM216.234 25.48H245.034V23.48H216.234V25.48ZM244.034 24.48V38.7H246.034V24.48H244.034ZM245.034 37.7H216.234V39.7H245.034V37.7ZM215.234 38.7V48.15H217.234V38.7H215.234ZM216.234 49.15H250.524V47.15H216.234V49.15ZM249.524 48.15V63H251.524V48.15H249.524ZM250.524 62H196.344V64H250.524V62ZM197.344 63V1.08H195.344V63H197.344ZM338.425 2.7L338.07 3.63486L338.07 3.63486L338.425 2.7ZM349.675 10.71L348.887 11.3249L348.893 11.3323L348.899 11.3396L349.675 10.71ZM353.905 23.49V24.49H354.905V23.49H353.905ZM334.915 23.49H333.915V24.49H334.915V23.49ZM331.495 17.28L330.916 18.0952L330.923 18.1003L330.931 18.1053L331.495 17.28ZM312.595 18.63L313.311 19.3284L313.32 19.3197L312.595 18.63ZM312.595 45.54L311.871 46.2297L311.88 46.2383L312.595 45.54ZM331.495 46.98L332.045 47.8154L332.053 47.8104L332.06 47.8053L331.495 46.98ZM334.915 41.04H335.915V40.04H334.915V41.04ZM320.875 41.04H319.875V42.04H320.875V41.04ZM320.875 28.44V27.44H319.875V28.44H320.875ZM353.905 28.44H354.905V27.44H353.905V28.44ZM353.905 63V64H354.905V63H353.905ZM343.645 63L342.694 63.3078L342.918 64H343.645V63ZM341.665 56.88L342.617 56.5722L342.156 55.149L341.017 56.1185L341.665 56.88ZM296.395 56.07L295.672 56.7609L295.676 56.7649L296.395 56.07ZM297.385 8.19L298.066 8.92306L298.066 8.92279L297.385 8.19ZM322.405 0.999996C328.245 0.999996 333.462 1.88462 338.07 3.63486L338.78 1.76514C333.909 -0.0846302 328.446 -1 322.405 -1V0.999996ZM338.07 3.63486C342.662 5.3785 346.253 7.94722 348.887 11.3249L350.464 10.0951C347.578 6.39278 343.669 3.62149 338.78 1.76514L338.07 3.63486ZM348.899 11.3396C351.556 14.6192 352.905 18.6488 352.905 23.49H354.905C354.905 18.2512 353.435 13.7608 350.452 10.0804L348.899 11.3396ZM353.905 22.49H334.915V24.49H353.905V22.49ZM335.915 23.49C335.915 20.5532 334.59 18.1855 332.06 16.4547L330.931 18.1053C332.961 19.4945 333.915 21.2668 333.915 23.49H335.915ZM332.075 16.4648C329.6 14.7063 326.629 13.85 323.215 13.85V15.85C326.282 15.85 328.831 16.6137 330.916 18.0952L332.075 16.4648ZM323.215 13.85C318.36 13.85 314.518 15.1609 311.871 17.9403L313.32 19.3197C315.473 17.0591 318.711 15.85 323.215 15.85V13.85ZM311.88 17.9317C309.244 20.6331 307.995 24.427 307.995 29.16H309.995C309.995 24.773 311.147 21.5469 313.311 19.3283L311.88 17.9317ZM307.995 29.16V34.92H309.995V29.16H307.995ZM307.995 34.92C307.995 39.6546 309.245 43.4717 311.871 46.2297L313.32 44.8503C311.146 42.5683 309.995 39.3054 309.995 34.92H307.995ZM311.88 46.2383C314.528 48.9528 318.366 50.23 323.215 50.23V48.23C318.705 48.23 315.463 47.0472 313.311 44.8417L311.88 46.2383ZM323.215 50.23C326.614 50.23 329.573 49.4415 332.045 47.8154L330.946 46.1446C328.858 47.5185 326.297 48.23 323.215 48.23V50.23ZM332.06 47.8053C334.565 46.0915 335.915 43.8239 335.915 41.04H333.915C333.915 43.0561 332.986 44.7485 330.931 46.1547L332.06 47.8053ZM334.915 40.04H320.875V42.04H334.915V40.04ZM321.875 41.04V28.44H319.875V41.04H321.875ZM320.875 29.44H353.905V27.44H320.875V29.44ZM352.905 28.44V63H354.905V28.44H352.905ZM353.905 62H343.645V64H353.905V62ZM344.597 62.6922L342.617 56.5722L340.714 57.1878L342.694 63.3078L344.597 62.6922ZM341.017 56.1185C335.597 60.7312 328.465 63.08 319.525 63.08V65.08C328.826 65.08 336.454 62.6288 342.314 57.6415L341.017 56.1185ZM319.525 63.08C309.431 63.08 302.023 60.4551 297.115 55.3751L295.676 56.7649C301.088 62.3649 309.1 65.08 319.525 65.08V63.08ZM297.118 55.3791C292.199 50.2313 289.655 42.5114 289.655 32.04H287.655C287.655 42.8086 290.272 51.1087 295.672 56.7609L297.118 55.3791ZM289.655 32.04C289.655 21.7241 292.51 14.0781 298.066 8.92306L296.705 7.45693C290.621 13.1018 287.655 21.3559 287.655 32.04H289.655ZM298.066 8.92279C303.705 3.68674 311.769 0.999996 322.405 0.999996V-1C311.442 -1 302.826 1.77325 296.705 7.4572L298.066 8.92279ZM421.946 30.33L421.114 29.7753L421.114 29.7753L421.946 30.33ZM413.036 37.08L412.69 36.1419L411.616 36.5384L412.153 37.5492L413.036 37.08ZM426.806 63V64H428.47L427.689 62.5308L426.806 63ZM404.486 63L403.587 63.4372L403.86 64H404.486V63ZM393.506 40.41L394.406 39.9728L394.132 39.41H393.506V40.41ZM386.126 40.41V39.41H385.126V40.41H386.126ZM386.126 63V64H387.126V63H386.126ZM366.236 63H365.236V64H366.236V63ZM366.236 1.08V0.0799979H365.236V1.08H366.236ZM415.466 3.69L414.979 4.56336L414.989 4.56889L414.999 4.57419L415.466 3.69ZM422.576 10.62L421.693 11.0887L421.699 11.0996L421.705 11.1103L422.576 10.62ZM403.136 16.83L402.429 17.5371L402.429 17.5371L403.136 16.83ZM386.126 15.21V14.21H385.126V15.21H386.126ZM386.126 26.64H385.126V27.64H386.126V26.64ZM403.136 25.02L403.843 25.7271L403.853 25.7176L403.862 25.7077L403.136 25.02ZM424.006 20.07C424.006 23.6584 423.041 26.8843 421.114 29.7753L422.778 30.8847C424.931 27.6556 426.006 24.0416 426.006 20.07H424.006ZM421.114 29.7753C419.206 32.6368 416.418 34.7652 412.69 36.1419L413.383 38.0181C417.454 36.5148 420.606 34.1432 422.778 30.8847L421.114 29.7753ZM412.153 37.5492L425.923 63.4692L427.689 62.5308L413.919 36.6108L412.153 37.5492ZM426.806 62H404.486V64H426.806V62ZM405.386 62.5628L394.406 39.9728L392.607 40.8472L403.587 63.4372L405.386 62.5628ZM393.506 39.41H386.126V41.41H393.506V39.41ZM385.126 40.41V63H387.126V40.41H385.126ZM386.126 62H366.236V64H386.126V62ZM367.236 63V1.08H365.236V63H367.236ZM366.236 2.08H404.126V0.0799979H366.236V2.08ZM404.126 2.08C408.437 2.08 412.04 2.92427 414.979 4.56336L415.953 2.81663C412.652 0.975728 408.696 0.0799979 404.126 0.0799979V2.08ZM414.999 4.57419C418.017 6.16846 420.234 8.3402 421.693 11.0887L423.46 10.1513C421.798 7.0198 419.276 4.57153 415.933 2.8058L414.999 4.57419ZM421.705 11.1103C423.237 13.8352 424.006 16.8155 424.006 20.07H426.006C426.006 16.4845 425.155 13.1648 423.448 10.1297L421.705 11.1103ZM405.756 20.88C405.756 19.0126 405.123 17.4027 403.843 16.1229L402.429 17.5371C403.309 18.4173 403.756 19.5074 403.756 20.88H405.756ZM403.843 16.1229C402.571 14.8509 400.995 14.21 399.176 14.21V16.21C400.477 16.21 401.541 16.6491 402.429 17.5371L403.843 16.1229ZM399.176 14.21H386.126V16.21H399.176V14.21ZM385.126 15.21V26.64H387.126V15.21H385.126ZM386.126 27.64H399.176V25.64H386.126V27.64ZM399.176 27.64C400.995 27.64 402.571 26.9991 403.843 25.7271L402.429 24.3129C401.541 25.2009 400.477 25.64 399.176 25.64V27.64ZM403.862 25.7077C405.124 24.3756 405.756 22.7469 405.756 20.88H403.756C403.756 22.2531 403.308 23.3844 402.41 24.3323L403.862 25.7077ZM436.285 1.08V0.0799979H435.285V1.08H436.285ZM489.835 1.08H490.835V0.0799979H489.835V1.08ZM489.835 15.93V16.93H490.835V15.93H489.835ZM456.175 15.93V14.93H455.175V15.93H456.175ZM456.175 24.48H455.175V25.48H456.175V24.48ZM484.975 24.48H485.975V23.48H484.975V24.48ZM484.975 38.7V39.7H485.975V38.7H484.975ZM456.175 38.7V37.7H455.175V38.7H456.175ZM456.175 48.15H455.175V49.15H456.175V48.15ZM490.465 48.15H491.465V47.15H490.465V48.15ZM490.465 63V64H491.465V63H490.465ZM436.285 63H435.285V64H436.285V63ZM436.285 2.08H489.835V0.0799979H436.285V2.08ZM488.835 1.08V15.93H490.835V1.08H488.835ZM489.835 14.93H456.175V16.93H489.835V14.93ZM455.175 15.93V24.48H457.175V15.93H455.175ZM456.175 25.48H484.975V23.48H456.175V25.48ZM483.975 24.48V38.7H485.975V24.48H483.975ZM484.975 37.7H456.175V39.7H484.975V37.7ZM455.175 38.7V48.15H457.175V38.7H455.175ZM456.175 49.15H490.465V47.15H456.175V49.15ZM489.465 48.15V63H491.465V48.15H489.465ZM490.465 62H436.285V64H490.465V62ZM437.285 63V1.08H435.285V63H437.285ZM518.066 63L517.124 63.3343L517.36 64H518.066V63ZM496.106 1.08V0.0799979H494.69L495.164 1.41425L496.106 1.08ZM517.346 1.08L518.304 0.79265L518.09 0.0799979H517.346V1.08ZM529.766 42.48L528.808 42.7673L529.022 43.48H529.766V42.48ZM530.126 42.48V43.48H530.869L531.083 42.7693L530.126 42.48ZM542.636 1.08V0.0799979H541.894L541.679 0.790741L542.636 1.08ZM562.976 1.08L563.919 1.41303L564.39 0.0799979H562.976V1.08ZM541.106 63V64H541.814L542.049 63.333L541.106 63ZM519.009 62.6657L497.049 0.745745L495.164 1.41425L517.124 63.3343L519.009 62.6657ZM496.106 2.08H517.346V0.0799979H496.106V2.08ZM516.388 1.36735L528.808 42.7673L530.724 42.1927L518.304 0.79265L516.388 1.36735ZM529.766 43.48H530.126V41.48H529.766V43.48ZM531.083 42.7693L543.593 1.36925L541.679 0.790741L529.169 42.1907L531.083 42.7693ZM542.636 2.08H562.976V0.0799979H542.636V2.08ZM562.033 0.746963L540.163 62.667L542.049 63.333L563.919 1.41303L562.033 0.746963ZM541.106 62H518.066V64H541.106V62ZM571.285 1.08V0.0799979H570.285V1.08H571.285ZM624.835 1.08H625.835V0.0799979H624.835V1.08ZM624.835 15.93V16.93H625.835V15.93H624.835ZM591.175 15.93V14.93H590.175V15.93H591.175ZM591.175 24.48H590.175V25.48H591.175V24.48ZM619.975 24.48H620.975V23.48H619.975V24.48ZM619.975 38.7V39.7H620.975V38.7H619.975ZM591.175 38.7V37.7H590.175V38.7H591.175ZM591.175 48.15H590.175V49.15H591.175V48.15ZM625.465 48.15H626.465V47.15H625.465V48.15ZM625.465 63V64H626.465V63H625.465ZM571.285 63H570.285V64H571.285V63ZM571.285 2.08H624.835V0.0799979H571.285V2.08ZM623.835 1.08V15.93H625.835V1.08H623.835ZM624.835 14.93H591.175V16.93H624.835V14.93ZM590.175 15.93V24.48H592.175V15.93H590.175ZM591.175 25.48H619.975V23.48H591.175V25.48ZM618.975 24.48V38.7H620.975V24.48H618.975ZM619.975 37.7H591.175V39.7H619.975V37.7ZM590.175 38.7V48.15H592.175V38.7H590.175ZM591.175 49.15H625.465V47.15H591.175V49.15ZM624.465 48.15V63H626.465V48.15H624.465ZM625.465 62H571.285V64H625.465V62ZM572.285 63V1.08H570.285V63H572.285Z" fill="#FF0000"/>
</g>
</svg>
