<svg width="628" height="67" viewBox="0 0 628 67" fill="none" xmlns="http://www.w3.org/2000/svg">
<mask id="path-1-outside-1_2_21" maskUnits="userSpaceOnUse" x="0.0838013" y="0" width="628" height="67" fill="black">
<rect fill="white" x="0.0838013" width="628" height="67"/>
<path d="M27.9038 2.08C49.5638 2.08 60.3938 12.4 60.3938 33.04C60.3938 53.68 49.5638 64 27.9038 64H1.0838V2.08H27.9038ZM20.9738 49.15H27.5438C35.8838 49.15 40.0538 44.68 40.0538 35.74V30.34C40.0538 21.4 35.8838 16.93 27.5438 16.93H20.9738V49.15Z"/>
<path d="M108.755 64L106.145 55.27H84.4554L81.8454 64H61.5054L84.0954 2.08H107.225L129.815 64H108.755ZM88.5954 41.41H102.005L95.5254 19.36H95.1654L88.5954 41.41Z"/>
<path d="M137.314 2.08H157.204V48.16H188.974V64H137.314V2.08Z"/>
<path d="M197.344 2.08H250.894V16.93H217.234V25.48H246.034V39.7H217.234V49.15H251.524V64H197.344V2.08Z"/>
<path d="M323.405 1C329.345 1 334.685 1.9 339.425 3.7C344.165 5.5 347.915 8.17 350.675 11.71C353.495 15.19 354.905 19.45 354.905 24.49H335.915C335.915 21.91 334.775 19.84 332.495 18.28C330.215 16.66 327.455 15.85 324.215 15.85C319.535 15.85 315.995 17.11 313.595 19.63C311.195 22.09 309.995 25.6 309.995 30.16V35.92C309.995 40.48 311.195 44.02 313.595 46.54C315.995 49 319.535 50.23 324.215 50.23C327.455 50.23 330.215 49.48 332.495 47.98C334.775 46.42 335.915 44.44 335.915 42.04H321.875V29.44H354.905V64H344.645L342.665 57.88C337.025 62.68 329.645 65.08 320.525 65.08C310.265 65.08 302.555 62.41 297.395 57.07C292.235 51.67 289.655 43.66 289.655 33.04C289.655 22.54 292.565 14.59 298.385 9.19C304.265 3.73 312.605 1 323.405 1Z"/>
<path d="M426.006 21.07C426.006 24.85 424.986 28.27 422.946 31.33C420.906 34.39 417.936 36.64 414.036 38.08L427.806 64H405.486L394.506 41.41H387.126V64H367.236V2.08H405.126C409.566 2.08 413.346 2.95 416.466 4.69C419.646 6.37 422.016 8.68 423.576 11.62C425.196 14.5 426.006 17.65 426.006 21.07ZM405.756 21.88C405.756 20.26 405.216 18.91 404.136 17.83C403.056 16.75 401.736 16.21 400.176 16.21H387.126V27.64H400.176C401.736 27.64 403.056 27.1 404.136 26.02C405.216 24.88 405.756 23.5 405.756 21.88Z"/>
<path d="M437.285 2.08H490.835V16.93H457.175V25.48H485.975V39.7H457.175V49.15H491.465V64H437.285V2.08Z"/>
<path d="M519.066 64L497.106 2.08H518.346L530.766 43.48H531.126L543.636 2.08H563.976L542.106 64H519.066Z"/>
<path d="M572.285 2.08H625.835V16.93H592.175V25.48H620.975V39.7H592.175V49.15H626.465V64H572.285V2.08Z"/>
</mask>
<path d="M27.9038 2.08C49.5638 2.08 60.3938 12.4 60.3938 33.04C60.3938 53.68 49.5638 64 27.9038 64H1.0838V2.08H27.9038ZM20.9738 49.15H27.5438C35.8838 49.15 40.0538 44.68 40.0538 35.74V30.34C40.0538 21.4 35.8838 16.93 27.5438 16.93H20.9738V49.15Z" fill="#EE0808"/>
<path d="M108.755 64L106.145 55.27H84.4554L81.8454 64H61.5054L84.0954 2.08H107.225L129.815 64H108.755ZM88.5954 41.41H102.005L95.5254 19.36H95.1654L88.5954 41.41Z" fill="#EE0808"/>
<path d="M137.314 2.08H157.204V48.16H188.974V64H137.314V2.08Z" fill="#EE0808"/>
<path d="M197.344 2.08H250.894V16.93H217.234V25.48H246.034V39.7H217.234V49.15H251.524V64H197.344V2.08Z" fill="#EE0808"/>
<path d="M323.405 1C329.345 1 334.685 1.9 339.425 3.7C344.165 5.5 347.915 8.17 350.675 11.71C353.495 15.19 354.905 19.45 354.905 24.49H335.915C335.915 21.91 334.775 19.84 332.495 18.28C330.215 16.66 327.455 15.85 324.215 15.85C319.535 15.85 315.995 17.11 313.595 19.63C311.195 22.09 309.995 25.6 309.995 30.16V35.92C309.995 40.48 311.195 44.02 313.595 46.54C315.995 49 319.535 50.23 324.215 50.23C327.455 50.23 330.215 49.48 332.495 47.98C334.775 46.42 335.915 44.44 335.915 42.04H321.875V29.44H354.905V64H344.645L342.665 57.88C337.025 62.68 329.645 65.08 320.525 65.08C310.265 65.08 302.555 62.41 297.395 57.07C292.235 51.67 289.655 43.66 289.655 33.04C289.655 22.54 292.565 14.59 298.385 9.19C304.265 3.73 312.605 1 323.405 1Z" fill="#EE0808"/>
<path d="M426.006 21.07C426.006 24.85 424.986 28.27 422.946 31.33C420.906 34.39 417.936 36.64 414.036 38.08L427.806 64H405.486L394.506 41.41H387.126V64H367.236V2.08H405.126C409.566 2.08 413.346 2.95 416.466 4.69C419.646 6.37 422.016 8.68 423.576 11.62C425.196 14.5 426.006 17.65 426.006 21.07ZM405.756 21.88C405.756 20.26 405.216 18.91 404.136 17.83C403.056 16.75 401.736 16.21 400.176 16.21H387.126V27.64H400.176C401.736 27.64 403.056 27.1 404.136 26.02C405.216 24.88 405.756 23.5 405.756 21.88Z" fill="#EE0808"/>
<path d="M437.285 2.08H490.835V16.93H457.175V25.48H485.975V39.7H457.175V49.15H491.465V64H437.285V2.08Z" fill="#EE0808"/>
<path d="M519.066 64L497.106 2.08H518.346L530.766 43.48H531.126L543.636 2.08H563.976L542.106 64H519.066Z" fill="#EE0808"/>
<path d="M572.285 2.08H625.835V16.93H592.175V25.48H620.975V39.7H592.175V49.15H626.465V64H572.285V2.08Z" fill="#EE0808"/>
<path d="M27.9038 2.08C49.5638 2.08 60.3938 12.4 60.3938 33.04C60.3938 53.68 49.5638 64 27.9038 64H1.0838V2.08H27.9038ZM20.9738 49.15H27.5438C35.8838 49.15 40.0538 44.68 40.0538 35.74V30.34C40.0538 21.4 35.8838 16.93 27.5438 16.93H20.9738V49.15Z" stroke="#EE0808" stroke-width="2" mask="url(#path-1-outside-1_2_21)"/>
<path d="M108.755 64L106.145 55.27H84.4554L81.8454 64H61.5054L84.0954 2.08H107.225L129.815 64H108.755ZM88.5954 41.41H102.005L95.5254 19.36H95.1654L88.5954 41.41Z" stroke="#EE0808" stroke-width="2" mask="url(#path-1-outside-1_2_21)"/>
<path d="M137.314 2.08H157.204V48.16H188.974V64H137.314V2.08Z" stroke="#EE0808" stroke-width="2" mask="url(#path-1-outside-1_2_21)"/>
<path d="M197.344 2.08H250.894V16.93H217.234V25.48H246.034V39.7H217.234V49.15H251.524V64H197.344V2.08Z" stroke="#EE0808" stroke-width="2" mask="url(#path-1-outside-1_2_21)"/>
<path d="M323.405 1C329.345 1 334.685 1.9 339.425 3.7C344.165 5.5 347.915 8.17 350.675 11.71C353.495 15.19 354.905 19.45 354.905 24.49H335.915C335.915 21.91 334.775 19.84 332.495 18.28C330.215 16.66 327.455 15.85 324.215 15.85C319.535 15.85 315.995 17.11 313.595 19.63C311.195 22.09 309.995 25.6 309.995 30.16V35.92C309.995 40.48 311.195 44.02 313.595 46.54C315.995 49 319.535 50.23 324.215 50.23C327.455 50.23 330.215 49.48 332.495 47.98C334.775 46.42 335.915 44.44 335.915 42.04H321.875V29.44H354.905V64H344.645L342.665 57.88C337.025 62.68 329.645 65.08 320.525 65.08C310.265 65.08 302.555 62.41 297.395 57.07C292.235 51.67 289.655 43.66 289.655 33.04C289.655 22.54 292.565 14.59 298.385 9.19C304.265 3.73 312.605 1 323.405 1Z" stroke="#EE0808" stroke-width="2" mask="url(#path-1-outside-1_2_21)"/>
<path d="M426.006 21.07C426.006 24.85 424.986 28.27 422.946 31.33C420.906 34.39 417.936 36.64 414.036 38.08L427.806 64H405.486L394.506 41.41H387.126V64H367.236V2.08H405.126C409.566 2.08 413.346 2.95 416.466 4.69C419.646 6.37 422.016 8.68 423.576 11.62C425.196 14.5 426.006 17.65 426.006 21.07ZM405.756 21.88C405.756 20.26 405.216 18.91 404.136 17.83C403.056 16.75 401.736 16.21 400.176 16.21H387.126V27.64H400.176C401.736 27.64 403.056 27.1 404.136 26.02C405.216 24.88 405.756 23.5 405.756 21.88Z" stroke="#EE0808" stroke-width="2" mask="url(#path-1-outside-1_2_21)"/>
<path d="M437.285 2.08H490.835V16.93H457.175V25.48H485.975V39.7H457.175V49.15H491.465V64H437.285V2.08Z" stroke="#EE0808" stroke-width="2" mask="url(#path-1-outside-1_2_21)"/>
<path d="M519.066 64L497.106 2.08H518.346L530.766 43.48H531.126L543.636 2.08H563.976L542.106 64H519.066Z" stroke="#EE0808" stroke-width="2" mask="url(#path-1-outside-1_2_21)"/>
<path d="M572.285 2.08H625.835V16.93H592.175V25.48H620.975V39.7H592.175V49.15H626.465V64H572.285V2.08Z" stroke="#EE0808" stroke-width="2" mask="url(#path-1-outside-1_2_21)"/>
</svg>
